/* XPM */
static char *_3f04678b2e54ef4cd6a0ef640f60d44hPzTES71oLPx9NJu[] = {
/* columns rows colors chars-per-pixel */
"32 32 2 1 ",
"  c black",
". c cyan",
/* pixels */
"                                ",
"                                ",
"            ........            ",
"            ........            ",
"        ................        ",
"        ................        ",
"            ........            ",
"            ........            ",
"              ....              ",
"              ....              ",
"         ..............         ",
"         ..............         ",
"       ..     ....     ..       ",
"       ..     ....     ..       ",
"       ..     ....     ..       ",
"       ..     ....     ..       ",
"         ..   ....   ..         ",
"         ..   ....   ..         ",
"              ....              ",
"              ....              ",
"            ........            ",
"            ........            ",
"          ..        ..          ",
"          ..        ..          ",
"          ..        ..          ",
"          ..        ..          ",
"          ..        ..          ",
"          ..        ..          ",
"      ....            ....      ",
"      ....            ....      ",
"                                ",
"                                "
};
