/* XPM */
static char *_1a29dd5693948cbeb1802e1de40d5aeXJHm7s4L1fBx1yxr[] = {
/* columns rows colors chars-per-pixel */
"32 32 2 1 ",
"  c black",
". c magenta",
/* pixels */
"                                ",
"                                ",
"            ........            ",
"            ........            ",
"        ................        ",
"        ................        ",
"            ........            ",
"            ........            ",
"              ....              ",
"              ....              ",
"         ..............         ",
"         ..............         ",
"       ..     ....     ..       ",
"       ..     ....     ..       ",
"       ..     ....     ..       ",
"       ..     ....     ..       ",
"         ..   ....   ..         ",
"         ..   ....   ..         ",
"              ....              ",
"              ....              ",
"            ........            ",
"            ........            ",
"          ..        ..          ",
"          ..        ..          ",
"          ..        ..          ",
"          ..        ..          ",
"          ..        ..          ",
"          ..        ..          ",
"      ....            ....      ",
"      ....            ....      ",
"                                ",
"                                "
};
